<?xml version="1.0" standalone="no"?>
<!DOCTYPE svg PUBLIC "-//W3C//DTD SVG 20010904//EN"
 "http://www.w3.org/TR/2001/REC-SVG-20010904/DTD/svg10.dtd">
<svg version="1.0" xmlns="http://www.w3.org/2000/svg"
 width="512.000000pt" height="512.000000pt" viewBox="0 0 512.000000 512.000000"
 preserveAspectRatio="xMidYMid meet">
<metadata>
Created by potrace 1.14, written by Peter Selinger 2001-2017
</metadata>
<g transform="translate(0.000000,512.000000) scale(0.100000,-0.100000)"
fill="#000000" stroke="none">
<path d="M2315 4898 c-332 -33 -708 -164 -1003 -348 -559 -349 -955 -940
-1066 -1590 -101 -592 27 -1198 359 -1700 375 -567 962 -933 1650 -1032 117
-16 493 -16 610 0 232 33 400 79 600 164 177 75 258 119 420 229 534 360 900
938 1000 1579 23 145 31 438 16 585 -59 588 -333 1130 -767 1518 -258 231
-528 386 -854 491 -315 102 -641 137 -965 104z m-302 -1279 c12 -6 54 -44 92
-86 l71 -75 68 21 c296 91 533 87 872 -14 17 -5 33 7 85 65 74 84 101 100 166
100 61 -1 96 -25 96 -68 0 -24 -17 -51 -73 -117 -62 -73 -71 -88 -58 -96 43
-24 142 -116 184 -172 76 -100 124 -222 124 -315 l0 -42 -987 2 -988 3 4 50
c5 70 32 152 76 231 40 71 155 195 213 229 17 11 32 22 32 25 0 3 -31 41 -70
85 -78 89 -89 127 -48 165 24 23 103 28 141 9z m1635 -1439 c2 -550 1 -598
-15 -629 -10 -19 -30 -43 -44 -53 -24 -18 -65 -19 -900 -25 -657 -4 -885 -3
-917 6 -23 7 -57 25 -75 41 l-32 28 -3 171 -3 170 -77 3 -77 3 -13 40 c-10 29
-12 90 -10 216 4 217 5 219 110 219 l68 0 0 205 0 205 993 -2 992 -3 3 -595z"/>
<path d="M2158 3197 c-32 -30 -42 -59 -34 -102 14 -70 107 -109 165 -69 31 22
52 75 45 114 -15 73 -122 107 -176 57z"/>
<path d="M3011 3194 c-76 -64 -29 -184 72 -184 51 0 107 52 107 99 0 96 -106
147 -179 85z"/>
</g>
</svg>
